<?xml version="1.0" standalone="no"?><!DOCTYPE svg PUBLIC "-//W3C//DTD SVG 1.1//EN" "http://www.w3.org/Graphics/SVG/1.1/DTD/svg11.dtd"><svg t="1528261991722" viewBox="0 0 1024 1024" version="1.1" xmlns="http://www.w3.org/2000/svg" p-id="15619" xmlns:xlink="http://www.w3.org/1999/xlink" width="64" height="64"><path d="M895.5676444444443 986.116551111111H128.43235555555555c-51.44576 0-92.76984888888889-20.170524444444446-113.41368888888888-55.34151111111111-20.643839999999997-35.170986666666664-18.131626666666666-81.11900444444446 6.917688888888889-126.01116444444443l387.0628977777778-693.6621511111111c25.19495111111111-45.21984 62.65969777777778-71.14296888888889 102.74588444444446-71.14296888888889s77.51452444444445 25.886719999999997 102.78229333333333 71.0701511111111l387.4633955555555 693.8077866666666c25.049315555555552 44.892160000000004 27.634346666666666 90.8037688888889 6.954097777777777 125.97475555555555-20.607431111111108 35.170986666666664-61.967928888888885 55.30510222222222-113.37727999999998 55.30510222222222zM511.78154666666666 112.77653333333336c-12.74311111111111 0-27.343075555555558 12.633884444444444-39.175964444444446 33.78744888888889L85.54268444444443 840.2989511111111c-12.12416 21.772515555555554-14.964053333333332 41.32408888888889-7.7186844444444445 53.66670222222222 7.24536888888889 12.306204444444445 25.704675555555554 19.36952888888889 50.608355555555555 19.36952888888889h767.1352888888889c24.94008888888889 0 43.362986666666664-7.026915555555555 50.608355555555555-19.36952888888889 7.20896-12.306204444444445 4.405475555555555-31.857777777777777-7.755093333333333-53.630293333333334L550.9575111111111 146.56398222222225c-11.79648-21.15356444444444-26.46926222222222-33.78744888888889-39.175964444444446-33.78744888888889z" fill="" p-id="15620"></path><path d="M512 657.6355555555556c-20.097706666666667 0-36.40888888888889-16.274773333333332-36.40888888888889-36.40888888888889V293.5466666666666c0-20.097706666666667 16.31118222222222-36.40888888888889 36.40888888888889-36.40888888888889s36.40888888888889 16.31118222222222 36.40888888888889 36.40888888888889v327.68c0 20.13411555555556-16.31118222222222 36.40888888888889-36.40888888888889 36.40888888888889zM457.38666666666666 785.2123022222222a1.7066666666666668 1.7066666666666668 0 1 0 109.22666666666667 0 1.7066666666666668 1.7066666666666668 0 1 0-109.22666666666667 0z" fill="" p-id="15621"></path></svg>
