<?xml version="1.0" standalone="no"?><!DOCTYPE svg PUBLIC "-//W3C//DTD SVG 1.1//EN" "http://www.w3.org/Graphics/SVG/1.1/DTD/svg11.dtd"><svg t="1528262293029" viewBox="0 0 1024 1024" version="1.1" xmlns="http://www.w3.org/2000/svg" p-id="17385" xmlns:xlink="http://www.w3.org/1999/xlink" width="64" height="64"><path d="M511.997955 0C229.510262 0 0.509619 229.001664 0.509619 511.488336c0 282.487694 229.000642 511.489359 511.488336 511.489359s511.488336-229.001664 511.488336-511.489359C1023.486292 229.001664 794.486672 0 511.997955 0M511.997955 958.92102c-247.109771 0-447.432684-200.321891-447.432684-447.432684 0-247.109771 200.322913-447.431661 447.432684-447.431661 247.109771 0 447.432684 200.321891 447.432684 447.431661C959.430639 758.599129 759.107727 958.92102 511.997955 958.92102" p-id="17386"></path><path d="M412.431481 402.977705c0 0 16.044071-98.734317 114.778388-87.62594 98.733295 11.107355 76.518585 85.158093 66.644131 99.967218-9.872409 24.68358-101.202164 83.92417-116.011289 119.715104-14.810147 35.790934-13.576224 102.43711-13.576224 102.43711l88.860886 0c0 0-4.936716-70.347946 44.430443-99.96824 49.367159-29.620296 133.290306-116.012312 96.265449-198.702558-59.24059-95.031524-117.246235-104.904957-192.530896-102.436087-75.284661 2.467847-154.272116 39.493727-180.189617 154.272116C382.811186 399.274914 412.431481 402.977705 412.431481 402.977705" p-id="17387"></path><path d="M463.032563 670.793263l92.562656 0 0 101.188874-92.562656 0 0-101.188874Z" p-id="17388"></path></svg>
